<?xml version="1.0" encoding="UTF-8"?>
<svg id="Layer_1" xmlns="http://www.w3.org/2000/svg" version="1.1" xmlns:xlink="http://www.w3.org/1999/xlink" width="180" height="67" viewBox="0 0 1356.6 505.2">
  <!-- Generator: Adobe Illustrator 29.2.1, SVG Export Plug-In . SVG Version: 2.1.0 Build 116)  -->
  <defs>
    <style>
      .st0 {
        fill: #0a1219;
      }

      .st1 {
        fill: url(#linear-gradient);
      }
    </style>
    <linearGradient id="linear-gradient" x1="402.6" y1="140.2" x2="245.1" y2="357.9" gradientUnits="userSpaceOnUse">
      <stop offset="0" stop-color="#0072f5"/>
      <stop offset="1" stop-color="#604aff"/>
    </linearGradient>
  </defs>
  <g>
    <g>
      <path class="st0" d="M147.1,263.5c4.9,25.6,24.8,40.6,52.2,40.6s32.9-6.9,41.5-21l21.3,12.1c-14.1,21.6-35.2,32.6-63.4,32.6s-41.5-7.2-55.9-21.3c-14.1-14.4-21.3-32.6-21.3-54.5s6.9-39.8,21-54.2c14.1-14.4,32.3-21.6,54.5-21.6s38.3,7.5,51.6,22.5c13.5,14.7,20.2,32.6,20.2,53.6s-.3,7.5-.9,11.2h-120.7ZM147.1,241.6h96.3c-4.3-27.4-23.3-41.8-46.4-41.8s-45.5,16.4-49.9,41.8Z"/>
      <path class="st0" d="M483.8,263.5c4.9,25.6,24.8,40.6,52.2,40.6s32.9-6.9,41.5-21l21.3,12.1c-14.1,21.6-35.2,32.6-63.4,32.6s-41.5-7.2-55.9-21.3c-14.1-14.4-21.3-32.6-21.3-54.5s6.9-39.8,21-54.2c14.1-14.4,32.3-21.6,54.5-21.6s38.3,7.5,51.6,22.5c13.5,14.7,20.2,32.6,20.2,53.6s-.3,7.5-.9,11.2h-120.7ZM483.8,241.6h96.3c-4.3-27.4-23.3-41.8-46.4-41.8s-45.5,16.4-49.9,41.8Z"/>
      <path class="st0" d="M642,204.1c8.4-17.9,23.3-26.8,45-26.8v26.2c-12.4-.6-22.8,2.6-31.7,9.8-8.9,7.2-13.3,18.4-13.3,34.3v76.4h-25.1v-144.1h25.1v24.2Z"/>
      <path class="st0" d="M811.6,179.9h27.1l-57.6,144.1h-29.4l-57.6-144.1h27.1l45.2,117.3,45.2-117.3Z"/>
      <path class="st0" d="M848.3,324v-144.1h25.1v144.1h-25.1Z"/>
      <path class="st0" d="M912,263.5c4.9,25.6,24.8,40.6,52.2,40.6s32.9-6.9,41.5-21l21.3,12.1c-14.1,21.6-35.2,32.6-63.4,32.6s-41.5-7.2-55.9-21.3c-14.1-14.4-21.3-32.6-21.3-54.5s6.9-39.8,21-54.2c14.1-14.4,32.3-21.6,54.5-21.6s38.3,7.5,51.6,22.5c13.5,14.7,20.2,32.6,20.2,53.6s-.3,7.5-.9,11.2h-120.7ZM912,241.6h96.2c-4.3-27.4-23.3-41.8-46.4-41.8s-45.5,16.4-49.9,41.8Z"/>
      <path class="st0" d="M1209.1,179.9h26.2l-44.7,144.1h-25.6l-33.7-106.6-33.7,106.6h-25.7l-44.7-144.1h26.2l31.7,109.5,34-109.5h24.2l34,109.8,31.7-109.8Z"/>
    </g>
    <path class="st0" d="M392.1,179.9v-3.4l25.1-7.5v10.9h38.3v24.2h-38.3v78.1c0,22.2,12.7,20.5,38.3,19.3v22.5c-43.8,5.8-63.4-6.1-63.4-41.8v-102.3Z"/>
  </g>
  <path class="st1" d="M294,152.2c0-11.7,9.5-21.2,21.2-21.2s21.2,9.5,21.2,21.2-9.5,21.2-21.2,21.2-21.2-9.5-21.2-21.2ZM345.7,263l-.2-.3h-30.2l-.7.9,15.8,21.2,29.1,39.2h31.7l-45.5-61ZM314.6,263.5l-44.8,60.5-43.2,58.3-1,1.3h31.4l44.2-59.6,29.1-39.2-15.8-21.2ZM314,220.3l-30-40.4h-31.7l46.3,62.2.2.3h30.2l.7-.9-15.8-21.2ZM387.3,121.4l-43.4,58.5-29.9,40.4,15.8,21.2,45.6-61.6,42.4-57.1.9-1.3h-31.4Z"/>
</svg>
